<svg version="1.1" xmlns="http://www.w3.org/2000/svg" viewBox="-29.460500017410087 -29.603878747577298 58.92100003482017 59.20775749515459" fill="none" stroke="black" stroke-width="0.6%" vector-effect="non-scaling-stroke">
    <path d="M -28.4605 2.86039 L -28.4605 -25.74349" />
    <path d="M 0 0 L -28.4605 -25.74349" />
    <path d="M 0 28.60388 L 0 0 L 28.4605 -2.86039 L 0 -28.60388 L -28.4605 -25.74349" />
    <path d="M -28.4605 2.86039 L 0 28.60388 L 28.4605 25.74349 L 28.4605 -2.86039" />
    <path d="M 8.22192 -20.21341 L -18.34121 -17.54371 L -27.19559 -25.5528 L -0.63246 -28.22249 L 8.22192 -20.21341 Z" />
    <path d="M -8.85438 -8.96255 L -17.70875 -16.97163 L 8.85438 -19.64133 L 17.70875 -11.63224 L -8.85438 -8.96255 Z" />
    <path d="M 0.63246 -0.38138 L -8.22192 -8.39047 L 18.34121 -11.06017 L 27.19559 -3.05108 L 0.63246 -0.38138 Z" />
    <path d="M -0.63246 -19.32351 L -0.63246 -28.22249" />
    <path d="M 8.85438 -10.74235 L 8.85438 -19.64133" />
    <path d="M 18.34121 -2.16118 L 18.34121 -11.06017" />
</svg>